<svg xmlns="http://www.w3.org/2000/svg" xmlns:xlink="http://www.w3.org/1999/xlink" width="80" zoomAndPan="magnify" viewBox="0 0 60 60" height="80" preserveAspectRatio="xMidYMid meet" version="1.0"><defs><g/></defs><rect x="-6" width="72" fill="#ffffff" y="-6" height="72" fill-opacity="1"/><rect x="-6" width="72" fill="#f6f6e9" y="-6" height="72" fill-opacity="1"/><rect x="-6" width="72" fill="#ffffff" y="-6" height="72" fill-opacity="1"/><rect x="-6" width="72" fill="#f6f6e9" y="-6" height="72" fill-opacity="1"/><path fill="#61a6ab" d="M 11.390625 28.476562 C 11.292969 28.21875 11.210938 27.945312 11.132812 27.691406 L 33.074219 5.75 C 33.328125 5.832031 33.601562 5.910156 33.859375 6.007812 Z M 30.511719 5.191406 C 30.207031 5.140625 29.886719 5.109375 29.582031 5.078125 L 10.445312 24.214844 C 10.476562 24.519531 10.507812 24.839844 10.554688 25.144531 Z M 37.972656 8.136719 C 37.765625 7.992188 37.558594 7.847656 37.347656 7.71875 L 13.085938 31.984375 C 13.214844 32.191406 13.359375 32.398438 13.503906 32.605469 Z M 35.332031 6.613281 C 35.089844 6.503906 34.851562 6.390625 34.609375 6.292969 L 11.675781 29.226562 C 11.773438 29.46875 11.886719 29.707031 11.996094 29.949219 Z M 36.691406 7.335938 C 36.46875 7.207031 36.242188 7.078125 36.019531 6.96875 L 12.316406 30.667969 C 12.429688 30.894531 12.558594 31.117188 12.6875 31.34375 Z M 20.886719 6.472656 C 20.132812 6.808594 19.394531 7.191406 18.691406 7.625 L 12.992188 13.324219 C 12.542969 14.03125 12.15625 14.765625 11.835938 15.519531 Z M 27.5625 4.996094 L 10.363281 22.199219 C 10.363281 22.550781 10.363281 22.886719 10.378906 23.238281 L 28.589844 5.011719 C 28.253906 4.996094 27.898438 4.996094 27.5625 4.996094 Z M 45.515625 22.484375 L 27.851562 40.148438 C 28.203125 40.148438 28.574219 40.148438 28.925781 40.117188 L 45.484375 23.558594 C 45.5 23.207031 45.515625 22.839844 45.515625 22.484375 Z M 39.160156 9.050781 C 38.964844 8.890625 38.773438 8.730469 38.582031 8.585938 L 13.953125 33.214844 C 14.09375 33.40625 14.253906 33.601562 14.414062 33.792969 Z M 26.457031 5.0625 C 26.058594 5.09375 25.675781 5.140625 25.273438 5.207031 L 10.570312 19.90625 C 10.507812 20.308594 10.460938 20.691406 10.429688 21.09375 Z M 23.992188 5.445312 C 23.511719 5.558594 23.03125 5.6875 22.550781 5.847656 L 11.195312 17.183594 C 11.050781 17.664062 10.910156 18.128906 10.796875 18.625 Z M 32.238281 5.527344 C 31.953125 5.460938 31.679688 5.398438 31.390625 5.332031 L 10.699219 26.023438 C 10.765625 26.3125 10.828125 26.585938 10.890625 26.875 Z M 45.195312 25.929688 C 45.277344 25.511719 45.339844 25.113281 45.386719 24.695312 L 30.0625 40.023438 C 30.480469 39.972656 30.894531 39.910156 31.296875 39.828125 Z M 45.484375 21.476562 C 45.46875 21.15625 45.4375 20.835938 45.402344 20.515625 L 25.882812 40.023438 C 26.203125 40.054688 26.523438 40.085938 26.84375 40.101562 Z M 45.261719 19.601562 C 45.210938 19.316406 45.148438 19.027344 45.085938 18.738281 L 24.089844 39.71875 C 24.375 39.78125 24.664062 39.847656 24.953125 39.894531 Z M 40.246094 10.027344 C 40.070312 9.851562 39.894531 9.691406 39.71875 9.515625 L 14.894531 34.335938 C 15.054688 34.511719 15.234375 34.6875 15.410156 34.863281 Z M 41.273438 34.015625 C 42.152344 32.992188 42.890625 31.902344 43.5 30.75 L 36.117188 38.132812 C 37.269531 37.523438 38.359375 36.785156 39.382812 35.90625 Z M 44.875 17.90625 C 44.796875 17.632812 44.714844 17.378906 44.636719 17.105469 L 22.472656 39.269531 C 22.742188 39.347656 23 39.429688 23.273438 39.507812 Z M 44.363281 28.859375 C 44.554688 28.347656 44.730469 27.835938 44.875 27.304688 L 32.671875 39.507812 C 33.199219 39.367188 33.714844 39.1875 34.226562 38.996094 Z M 42.183594 12.269531 C 42.042969 12.078125 41.898438 11.867188 41.738281 11.675781 L 17.042969 36.355469 C 17.234375 36.515625 17.441406 36.660156 17.632812 36.804688 Z M 44.363281 16.335938 C 44.265625 16.078125 44.171875 15.839844 44.058594 15.597656 L 20.949219 38.707031 C 21.191406 38.820312 21.445312 38.917969 21.6875 39.011719 Z M 41.257812 11.097656 C 41.097656 10.90625 40.9375 10.730469 40.761719 10.554688 L 15.921875 35.394531 C 16.097656 35.570312 16.289062 35.730469 16.464844 35.890625 Z M 43.003906 13.515625 C 42.875 13.308594 42.746094 13.085938 42.601562 12.875 L 18.242188 37.234375 C 18.453125 37.378906 18.660156 37.507812 18.882812 37.636719 Z M 43.738281 14.878906 C 43.625 14.65625 43.515625 14.414062 43.386719 14.191406 L 19.554688 38.019531 C 19.78125 38.148438 20.003906 38.261719 20.246094 38.371094 Z M 43.738281 14.878906 " fill-opacity="1" fill-rule="nonzero"/><path fill="#f6f6e9" d="M 33.007812 13.636719 C 26.230469 13.636719 20.738281 19.128906 20.738281 25.910156 C 20.738281 32.6875 26.230469 38.183594 33.007812 38.183594 C 39.789062 38.183594 45.28125 32.6875 45.28125 25.910156 C 45.28125 19.128906 39.789062 13.636719 33.007812 13.636719 " fill-opacity="1" fill-rule="nonzero"/><g fill="#291b25" fill-opacity="1"><g transform="translate(33.686025, 43.791167)"><g><path d="M 7.699219 -17.421875 C 10.925781 -17.421875 13.105469 -16.371094 14.464844 -14.933594 C 13.492188 -13.492188 12.289062 -12.40625 10.148438 -12.792969 C 11.121094 -13.570312 10.226562 -16.683594 7.699219 -16.683594 C 5.601562 -16.683594 4.589844 -15.28125 4.589844 -14 C 4.589844 -10.148438 15.089844 -11.472656 15.089844 -4.9375 C 15.089844 -1.554688 12.792969 0.0390625 6.882812 0.0390625 C 5.015625 0.0390625 1.359375 -0.621094 0 -2.292969 C 1.089844 -3.617188 1.4375 -5.640625 3.148438 -6.53125 C 1.90625 -4.199219 3.226562 -1.320312 6.222656 -1.320312 C 7.816406 -1.320312 9.292969 -1.828125 9.292969 -3.964844 C 9.292969 -6.339844 7.386719 -7.117188 5.171875 -8.089844 C 4.433594 -8.398438 0.777344 -9.371094 0.777344 -13.105469 C 0.777344 -15.28125 3.070312 -17.421875 7.699219 -17.421875 Z M 7.699219 -17.421875 "/></g></g></g></svg>